<?xml version="1.0" encoding="UTF-8"?>
<svg xmlns="http://www.w3.org/2000/svg" width="375pt" height="374.999991pt"
     viewBox="0 0 375 374.999991" version="1.2">
    <defs>
        <clipPath id="clip1">
            <path d="M 37.5 5.53125 L 338.25 5.53125 L 338.25 369.105469 L 37.5 369.105469 Z M 37.5 5.53125 "/>
        </clipPath>
    </defs>
    <g id="surface1">
        <g clip-path="url(#clip1)" clip-rule="nonzero">
            <path style=" stroke:none;fill-rule:nonzero;fill:rgb(0%,0%,0%);fill-opacity:1;"
                  d="M 224.507812 5.53125 C 167.285156 5.53125 139.398438 33.996094 130.402344 66.785156 C 122.765625 59.035156 111.171875 52.953125 94.257812 52.953125 C 66.03125 52.953125 37.527344 69.441406 37.527344 106.304688 C 37.527344 121.0625 46.277344 134.957031 58.367188 142.335938 C 48.316406 149.714844 37.527344 161.324219 37.527344 179.414062 C 37.527344 191.488281 41.175781 200.871094 46.308594 208.035156 C 52.585938 204.917969 59.664062 203.125 67.207031 203.125 C 73.792969 203.125 80.410156 204.207031 86.746094 206.304688 C 92.558594 204.207031 98.679688 203.125 104.800781 203.125 C 111.601562 203.125 118.34375 204.390625 124.589844 206.863281 C 130.832031 204.390625 137.574219 203.125 144.375 203.125 C 151.175781 203.125 157.914062 204.390625 164.160156 206.863281 C 170.40625 204.390625 177.144531 203.125 183.945312 203.125 C 190.75 203.125 197.488281 204.390625 203.734375 206.863281 C 209.976562 204.390625 216.71875 203.125 223.519531 203.125 C 230.320312 203.125 237.0625 204.390625 243.304688 206.863281 C 249.550781 204.390625 256.289062 203.125 263.09375 203.125 C 269.214844 203.125 275.335938 204.207031 281.148438 206.304688 C 287.453125 204.207031 294.101562 203.125 300.6875 203.125 C 311.074219 203.125 320.628906 206.523438 328.292969 212.140625 C 328.914062 211.460938 329.65625 210.535156 330.519531 209.269531 C 338.25 198 338.28125 186.390625 338.28125 181.390625 C 338.28125 156.628906 328.324219 142.210938 316.980469 135.667969 C 321.832031 120.878906 322.449219 101.242188 322.449219 92.472656 C 322.449219 39.648438 284.023438 5.53125 224.507812 5.53125 Z M 128.546875 116.183594 C 139.488281 116.183594 148.332031 125.015625 148.332031 135.945312 C 148.332031 146.875 139.488281 155.703125 128.546875 155.703125 C 117.601562 155.703125 108.757812 146.875 108.757812 135.945312 C 108.757812 125.015625 117.601562 116.183594 128.546875 116.183594 Z M 255.175781 116.183594 C 266.121094 116.183594 274.964844 125.015625 274.964844 135.945312 C 274.964844 146.875 266.121094 155.703125 255.175781 155.703125 C 244.234375 155.703125 235.390625 146.875 235.390625 135.945312 C 235.390625 125.015625 244.234375 116.183594 255.175781 116.183594 Z M 132.503906 124.089844 C 128.144531 124.089844 124.589844 127.640625 124.589844 131.992188 C 124.589844 136.34375 128.144531 139.894531 132.503906 139.894531 C 136.863281 139.894531 140.417969 136.34375 140.417969 131.992188 C 140.417969 127.640625 136.863281 124.089844 132.503906 124.089844 Z M 259.136719 124.089844 C 254.777344 124.089844 251.21875 127.640625 251.21875 131.992188 C 251.21875 136.34375 254.777344 139.894531 259.136719 139.894531 C 263.492188 139.894531 267.050781 136.34375 267.050781 131.992188 C 267.050781 127.640625 263.492188 124.089844 259.136719 124.089844 Z M 172.074219 155.703125 L 211.648438 155.703125 C 216.007812 155.703125 219.5625 159.253906 219.5625 163.609375 C 219.5625 176.699219 208.925781 187.320312 195.820312 187.320312 L 187.90625 187.320312 C 174.796875 187.320312 164.160156 176.699219 164.160156 163.609375 C 164.160156 159.253906 167.714844 155.703125 172.074219 155.703125 Z M 67.207031 218.933594 C 50.851562 218.933594 37.527344 231.34375 37.527344 246.597656 C 37.527344 247.308594 37.621094 248.015625 37.808594 248.695312 L 69.464844 363.300781 C 70.421875 366.730469 73.546875 369.105469 77.101562 369.105469 L 290.792969 369.105469 C 294.347656 369.105469 297.472656 366.730469 298.429688 363.300781 L 330.085938 248.695312 C 330.273438 248.015625 330.367188 247.308594 330.367188 246.597656 C 330.367188 231.34375 317.039062 218.933594 300.6875 218.933594 C 293.421875 218.933594 286.648438 220.695312 280.898438 223.410156 C 275.613281 220.632812 269.554688 218.933594 263.09375 218.933594 C 255.828125 218.933594 248.996094 220.972656 243.304688 224.429688 C 237.617188 220.972656 230.785156 218.933594 223.519531 218.933594 C 216.253906 218.933594 209.421875 220.972656 203.734375 224.429688 C 198.042969 220.972656 191.210938 218.933594 183.945312 218.933594 C 176.683594 218.933594 169.847656 220.972656 164.160156 224.429688 C 158.472656 220.972656 151.640625 218.933594 144.375 218.933594 C 137.109375 218.933594 130.277344 220.972656 124.589844 224.429688 C 118.898438 220.972656 112.066406 218.933594 104.800781 218.933594 C 98.339844 218.933594 92.28125 220.632812 86.996094 223.410156 C 81.242188 220.695312 74.472656 218.933594 67.207031 218.933594 Z M 67.207031 234.742188 C 77.625 234.742188 84.148438 239.1875 86.253906 241.75 L 106.347656 353.296875 L 83.128906 353.296875 L 53.417969 245.703125 C 53.976562 239.652344 60.066406 234.742188 67.207031 234.742188 Z M 144.375 234.742188 C 153.898438 234.742188 162.121094 240.761719 164.160156 247.585938 C 164.097656 247.585938 167.871094 353.296875 167.871094 353.296875 L 137.574219 353.296875 L 125.792969 245.640625 C 128.484375 239.679688 135.78125 234.742188 144.375 234.742188 Z M 223.519531 234.742188 C 232.175781 234.742188 239.472656 239.710938 242.160156 245.734375 L 230.722656 353.296875 L 200.023438 353.296875 C 200.023438 353.296875 203.796875 247.585938 203.734375 247.585938 C 205.742188 240.761719 213.9375 234.742188 223.519531 234.742188 Z M 300.6875 234.742188 C 307.828125 234.742188 313.917969 239.652344 314.503906 245.703125 L 284.765625 353.296875 L 261.546875 353.296875 L 281.609375 241.75 C 283.714844 239.1875 290.265625 234.742188 300.6875 234.742188 Z M 300.6875 234.742188 "/>
        </g>
    </g>
</svg>
