<?xml version="1.0" encoding="UTF-8"?>
<svg xmlns="http://www.w3.org/2000/svg" xmlns:xlink="http://www.w3.org/1999/xlink" width="375pt" height="374.999991pt" viewBox="0 0 375 374.999991" version="1.2">
<defs>
<clipPath id="clip1">
  <path d="M 37.5 5.53125 L 338.25 5.53125 L 338.25 369.28125 L 37.5 369.28125 Z M 37.5 5.53125 "/>
</clipPath>
</defs>
<g id="surface1">
<g clip-path="url(#clip1)" clip-rule="nonzero">
<path style=" stroke:none;fill-rule:nonzero;fill:rgb(43.919373%,43.919373%,43.919373%);fill-opacity:1;" d="M 224.472656 5.53125 C 167.257812 5.53125 139.378906 34.011719 130.382812 66.816406 C 122.746094 59.0625 111.15625 52.976562 94.25 52.976562 C 66.027344 52.976562 37.527344 69.472656 37.527344 106.355469 C 37.527344 121.117188 46.277344 135.019531 58.363281 142.402344 C 48.316406 149.785156 37.527344 161.398438 37.527344 179.5 C 37.527344 191.578125 41.175781 200.96875 46.308594 208.132812 C 52.582031 205.011719 59.660156 203.222656 67.203125 203.222656 C 73.785156 203.222656 80.402344 204.304688 86.738281 206.402344 C 92.546875 204.304688 98.667969 203.222656 104.789062 203.222656 C 111.589844 203.222656 118.328125 204.488281 124.570312 206.960938 C 130.816406 204.488281 137.554688 203.222656 144.355469 203.222656 C 151.152344 203.222656 157.890625 204.488281 164.136719 206.960938 C 170.378906 204.488281 177.117188 203.222656 183.917969 203.222656 C 190.71875 203.222656 197.457031 204.488281 203.699219 206.960938 C 209.945312 204.488281 216.683594 203.222656 223.484375 203.222656 C 230.285156 203.222656 237.023438 204.488281 243.265625 206.960938 C 249.507812 204.488281 256.246094 203.222656 263.046875 203.222656 C 269.167969 203.222656 275.289062 204.304688 281.101562 206.402344 C 287.40625 204.304688 294.050781 203.222656 300.636719 203.222656 C 311.019531 203.222656 320.570312 206.621094 328.238281 212.242188 C 328.855469 211.5625 329.597656 210.636719 330.464844 209.367188 C 338.191406 198.09375 338.222656 186.480469 338.222656 181.476562 C 338.222656 156.703125 328.269531 142.277344 316.925781 135.730469 C 321.777344 120.933594 322.394531 101.289062 322.394531 92.515625 C 322.394531 39.664062 283.972656 5.53125 224.472656 5.53125 Z M 128.527344 116.238281 C 139.46875 116.238281 148.308594 125.074219 148.308594 136.007812 C 148.308594 146.941406 139.46875 155.777344 128.527344 155.777344 C 117.585938 155.777344 108.746094 146.941406 108.746094 136.007812 C 108.746094 125.074219 117.585938 116.238281 128.527344 116.238281 Z M 255.136719 116.238281 C 266.078125 116.238281 274.917969 125.074219 274.917969 136.007812 C 274.917969 146.941406 266.078125 155.777344 255.136719 155.777344 C 244.191406 155.777344 235.351562 146.941406 235.351562 136.007812 C 235.351562 125.074219 244.191406 116.238281 255.136719 116.238281 Z M 132.484375 124.144531 C 128.125 124.144531 124.570312 127.699219 124.570312 132.054688 C 124.570312 136.410156 128.125 139.960938 132.484375 139.960938 C 136.84375 139.960938 140.398438 136.410156 140.398438 132.054688 C 140.398438 127.699219 136.84375 124.144531 132.484375 124.144531 Z M 259.089844 124.144531 C 254.734375 124.144531 251.179688 127.699219 251.179688 132.054688 C 251.179688 136.410156 254.734375 139.960938 259.089844 139.960938 C 263.449219 139.960938 267.003906 136.410156 267.003906 132.054688 C 267.003906 127.699219 263.449219 124.144531 259.089844 124.144531 Z M 172.050781 155.777344 L 211.613281 155.777344 C 215.972656 155.777344 219.527344 159.328125 219.527344 163.683594 C 219.527344 176.78125 208.894531 187.40625 195.789062 187.40625 L 187.875 187.40625 C 174.769531 187.40625 164.136719 176.78125 164.136719 163.683594 C 164.136719 159.328125 167.691406 155.777344 172.050781 155.777344 Z M 67.203125 219.035156 C 50.851562 219.035156 37.527344 231.453125 37.527344 246.714844 C 37.527344 247.425781 37.621094 248.132812 37.808594 248.8125 L 69.457031 363.472656 C 70.417969 366.902344 73.539062 369.28125 77.09375 369.28125 L 290.742188 369.28125 C 294.296875 369.28125 297.421875 366.902344 298.378906 363.472656 L 330.03125 248.8125 C 330.214844 248.132812 330.308594 247.425781 330.308594 246.714844 C 330.308594 231.453125 316.984375 219.035156 300.636719 219.035156 C 293.371094 219.035156 286.601562 220.796875 280.851562 223.515625 C 275.566406 220.734375 269.507812 219.035156 263.046875 219.035156 C 255.785156 219.035156 248.953125 221.074219 243.265625 224.535156 C 237.578125 221.074219 230.746094 219.035156 223.484375 219.035156 C 216.21875 219.035156 209.386719 221.074219 203.699219 224.535156 C 198.011719 221.074219 191.183594 219.035156 183.917969 219.035156 C 176.65625 219.035156 169.824219 221.074219 164.136719 224.535156 C 158.449219 221.074219 151.617188 219.035156 144.355469 219.035156 C 137.089844 219.035156 130.257812 221.074219 124.570312 224.535156 C 118.882812 221.074219 112.050781 219.035156 104.789062 219.035156 C 98.328125 219.035156 92.269531 220.734375 86.984375 223.515625 C 81.234375 220.796875 74.464844 219.035156 67.203125 219.035156 Z M 67.203125 234.851562 C 77.617188 234.851562 84.140625 239.300781 86.242188 241.863281 L 106.335938 353.464844 L 83.121094 353.464844 L 53.417969 245.816406 C 53.972656 239.761719 60.0625 234.851562 67.203125 234.851562 Z M 144.355469 234.851562 C 153.875 234.851562 162.097656 240.875 164.136719 247.703125 C 164.074219 247.703125 167.84375 353.464844 167.84375 353.464844 L 137.554688 353.464844 L 125.777344 245.757812 C 128.464844 239.792969 135.761719 234.851562 144.355469 234.851562 Z M 223.484375 234.851562 C 232.136719 234.851562 239.433594 239.824219 242.121094 245.847656 L 230.683594 353.464844 L 199.992188 353.464844 C 199.992188 353.464844 203.761719 247.703125 203.699219 247.703125 C 205.710938 240.875 213.902344 234.851562 223.484375 234.851562 Z M 300.636719 234.851562 C 307.773438 234.851562 313.863281 239.761719 314.453125 245.816406 L 284.714844 353.464844 L 261.503906 353.464844 L 281.5625 241.863281 C 283.664062 239.300781 290.21875 234.851562 300.636719 234.851562 Z M 300.636719 234.851562 "/>
</g>
</g>
</svg>
